<?xml version="1.0" encoding="utf-8"?>
<!-- Generator: Adobe Illustrator 16.0.0, SVG Export Plug-In . SVG Version: 6.00 Build 0)  -->
<!DOCTYPE svg PUBLIC "-//W3C//DTD SVG 1.1//EN" "http://www.w3.org/Graphics/SVG/1.1/DTD/svg11.dtd">
<svg version="1.1" id="Capa_1" xmlns="http://www.w3.org/2000/svg" xmlns:xlink="http://www.w3.org/1999/xlink" x="0px" y="0px"
	 width="52px" height="8px" viewBox="0 0 52 8" enable-background="new 0 0 52 8" xml:space="preserve">
<g>
	<g>
		<path fill="#FFFFFF" d="M6.553,0C5.721,0,4.984,0.406,4.528,1.031C4.073,0.406,3.336,0,2.503,0C1.121,0,0,1.121,0,2.504
			C0,4.607,4.528,8,4.528,8s4.528-3.393,4.528-5.496C9.057,1.121,7.936,0,6.553,0z"/>
	</g>
	<g>
		<path fill="#DE3831" d="M5.497,3.691C4.69,2.631,4.874,1.735,4.874,1.735C2.033,4.143,3.31,5.352,3.41,5.453
			c0.241,0.24,0.433,0.393,0.435,0.811c0.18-0.18,0.772-0.578,0.219-1.459c0,0-0.495-0.689,0.4-1.338
			C4.435,4.939,5.559,4.756,4.88,6.258C4.88,6.258,6.961,5.619,5.497,3.691z"/>
	</g>
</g>
<g>
	<path fill="#FFFFFF" d="M15.815,4.764c0,0.095-0.037,0.202-0.111,0.322c-0.074,0.12-0.174,0.245-0.299,0.376
		c-0.138,0.141-0.29,0.271-0.455,0.393c-0.165,0.122-0.336,0.227-0.514,0.314c-0.178,0.087-0.358,0.156-0.542,0.207
		c-0.184,0.05-0.363,0.074-0.537,0.074c-0.214,0-0.406-0.033-0.573-0.103s-0.309-0.168-0.426-0.3
		c-0.116-0.131-0.205-0.295-0.267-0.492C12.031,5.362,12,5.135,12,4.879c0-0.153,0.015-0.31,0.044-0.468
		c0.03-0.158,0.072-0.316,0.128-0.476c0.057-0.157,0.127-0.31,0.211-0.457c0.084-0.146,0.181-0.284,0.288-0.415
		c0.069-0.08,0.148-0.165,0.236-0.246c0.088-0.084,0.186-0.158,0.293-0.226c0.107-0.065,0.226-0.122,0.355-0.164
		c0.129-0.042,0.269-0.063,0.42-0.063c0.123,0,0.232,0.021,0.328,0.065c0.096,0.045,0.177,0.103,0.244,0.171
		c0.066,0.069,0.118,0.146,0.153,0.234c0.036,0.087,0.054,0.173,0.054,0.257c0,0.198-0.042,0.385-0.128,0.558
		c-0.085,0.174-0.205,0.338-0.358,0.495s-0.338,0.313-0.554,0.462c-0.216,0.151-0.455,0.307-0.715,0.465
		c-0.013,0.006-0.033,0.019-0.06,0.035c-0.027,0.016-0.04,0.028-0.04,0.033c0.002,0.053,0.015,0.105,0.038,0.165
		s0.059,0.114,0.107,0.165c0.049,0.051,0.111,0.094,0.186,0.128c0.076,0.036,0.166,0.056,0.271,0.056
		c0.161,0,0.323-0.022,0.487-0.067c0.164-0.046,0.325-0.108,0.483-0.192c0.159-0.085,0.313-0.188,0.464-0.308
		c0.15-0.12,0.294-0.257,0.429-0.406c0.051-0.06,0.102-0.103,0.151-0.127c0.05-0.024,0.097-0.038,0.14-0.038
		c0.043,0,0.081,0.02,0.113,0.055C15.799,4.604,15.815,4.67,15.815,4.764z M13.956,3.295c0-0.041-0.008-0.075-0.023-0.103
		c-0.016-0.027-0.033-0.049-0.052-0.063c-0.02-0.017-0.039-0.027-0.058-0.034c-0.02-0.006-0.033-0.009-0.041-0.009
		c-0.115,0-0.221,0.044-0.318,0.132c-0.097,0.088-0.184,0.202-0.261,0.34c-0.077,0.141-0.144,0.29-0.201,0.457
		c-0.058,0.166-0.105,0.327-0.144,0.48c0.154-0.115,0.297-0.226,0.43-0.323c0.133-0.101,0.249-0.197,0.347-0.292
		c0.098-0.096,0.176-0.188,0.234-0.283C13.926,3.504,13.956,3.403,13.956,3.295z"/>
	<path fill="#FFFFFF" d="M21.22,4.584c0,0.122-0.012,0.239-0.035,0.351c-0.023,0.11-0.058,0.221-0.104,0.329
		s-0.104,0.22-0.173,0.329c-0.069,0.109-0.149,0.225-0.241,0.345c-0.054,0.066-0.109,0.132-0.165,0.193s-0.111,0.121-0.165,0.175
		C20.283,6.36,20.23,6.409,20.18,6.452c-0.051,0.043-0.097,0.08-0.138,0.105c-0.082,0.061-0.188,0.116-0.318,0.176
		c-0.13,0.057-0.277,0.111-0.441,0.162c-0.158,0.053-0.313,0.092-0.464,0.116c-0.151,0.028-0.292,0.042-0.422,0.042
		c-0.133,0-0.252-0.014-0.358-0.037s-0.196-0.063-0.271-0.111c-0.074-0.053-0.131-0.117-0.171-0.193
		c-0.04-0.078-0.059-0.172-0.059-0.277c0-0.068,0.015-0.132,0.046-0.188c0.031-0.057,0.072-0.104,0.125-0.146
		c0.052-0.039,0.114-0.069,0.184-0.092s0.145-0.032,0.225-0.032c0.048,0,0.09,0.002,0.125,0.008c0.035,0.004,0.067,0.01,0.098,0.018
		c0.031,0.008,0.061,0.018,0.09,0.029c0.029,0.015,0.063,0.027,0.102,0.047c0.123,0.055,0.217,0.08,0.284,0.08
		c0.033,0,0.079-0.006,0.136-0.019c0.058-0.012,0.117-0.026,0.178-0.046c0.062-0.021,0.12-0.04,0.176-0.063
		c0.057-0.021,0.1-0.043,0.13-0.063c0.1-0.069,0.201-0.155,0.303-0.256c0.102-0.103,0.195-0.21,0.278-0.326s0.151-0.235,0.204-0.356
		C20.273,4.909,20.3,4.797,20.3,4.688c0-0.09-0.02-0.17-0.06-0.241c-0.04-0.072-0.09-0.136-0.151-0.19
		c-0.062-0.058-0.13-0.104-0.207-0.146c-0.077-0.041-0.151-0.074-0.223-0.101c-0.072-0.026-0.138-0.045-0.199-0.06
		c-0.062-0.013-0.109-0.02-0.142-0.02c-0.092,0-0.17,0.003-0.234,0.01c-0.065,0.006-0.123,0.014-0.172,0.025
		c-0.049,0.012-0.097,0.025-0.142,0.045c-0.045,0.018-0.093,0.038-0.144,0.063C18.565,4.1,18.513,4.12,18.47,4.135
		c-0.043,0.014-0.088,0.021-0.134,0.021c-0.064,0-0.123-0.013-0.176-0.033c-0.053-0.021-0.099-0.049-0.136-0.086
		c-0.037-0.035-0.066-0.076-0.086-0.121c-0.02-0.047-0.03-0.094-0.03-0.141c0-0.084,0.013-0.16,0.04-0.229
		c0.027-0.069,0.063-0.131,0.109-0.182c0.046-0.05,0.098-0.09,0.157-0.121c0.059-0.032,0.12-0.055,0.184-0.065
		c0.036-0.008,0.076-0.015,0.121-0.017c0.045-0.004,0.088-0.006,0.13-0.008c0.042,0,0.08,0,0.111,0c0.032,0,0.052-0.002,0.06-0.004
		c0.056-0.033,0.124-0.076,0.201-0.127c0.078-0.052,0.159-0.109,0.244-0.172s0.169-0.128,0.253-0.195
		c0.084-0.069,0.161-0.14,0.229-0.207c0.067-0.066,0.122-0.131,0.163-0.191c0.041-0.063,0.062-0.115,0.062-0.161
		c0-0.097-0.043-0.166-0.128-0.213c-0.085-0.049-0.226-0.07-0.42-0.07c-0.153,0-0.328,0.017-0.523,0.046
		c-0.196,0.03-0.387,0.075-0.573,0.135c-0.08,0.024-0.159,0.058-0.238,0.092c-0.08,0.037-0.154,0.074-0.225,0.115
		c-0.071,0.041-0.133,0.086-0.19,0.131c-0.056,0.047-0.102,0.093-0.138,0.139c-0.008,0.011-0.014,0.036-0.02,0.077
		c-0.005,0.04-0.009,0.1-0.011,0.176C17.503,2.8,17.5,2.896,17.496,3.015c-0.004,0.117-0.009,0.26-0.017,0.426
		c-0.005,0.107-0.01,0.195-0.014,0.266c-0.003,0.067-0.008,0.135-0.013,0.195c-0.005,0.062-0.012,0.125-0.019,0.19
		c-0.008,0.065-0.018,0.151-0.031,0.257c-0.021,0.146-0.039,0.285-0.056,0.419c-0.017,0.134-0.025,0.249-0.025,0.349v0.703
		c0,0.252-0.047,0.438-0.142,0.553c-0.094,0.117-0.234,0.177-0.418,0.177c-0.097,0-0.178-0.021-0.242-0.056
		c-0.064-0.034-0.114-0.09-0.151-0.159c-0.037-0.071-0.064-0.166-0.078-0.272c-0.014-0.105-0.021-0.23-0.021-0.372
		c0-0.003,0.004-0.03,0.011-0.087c0.008-0.055,0.018-0.124,0.029-0.207c0.012-0.083,0.024-0.174,0.039-0.271
		c0.015-0.101,0.027-0.194,0.04-0.285C16.4,4.751,16.412,4.669,16.42,4.6c0.009-0.069,0.015-0.116,0.017-0.14
		c0.003-0.01,0.007-0.051,0.014-0.117c0.007-0.066,0.015-0.148,0.025-0.245c0.01-0.097,0.021-0.198,0.031-0.31
		c0.01-0.108,0.021-0.213,0.031-0.312c0.01-0.098,0.019-0.182,0.027-0.249c0.007-0.068,0.011-0.109,0.011-0.123
		c0.023-0.195,0.035-0.313,0.035-0.353c0-0.028-0.002-0.063-0.008-0.097c-0.005-0.037-0.011-0.074-0.017-0.11
		s-0.012-0.069-0.018-0.101c-0.005-0.029-0.007-0.049-0.007-0.059c0-0.1,0.009-0.193,0.027-0.28s0.047-0.167,0.088-0.241
		c0.103-0.196,0.212-0.304,0.33-0.316c0.074-0.012,0.147-0.026,0.22-0.046c0.073-0.021,0.142-0.037,0.206-0.06
		c0.319-0.103,0.572-0.186,0.757-0.25c0.185-0.063,0.308-0.104,0.366-0.121c0.077-0.022,0.155-0.045,0.234-0.062
		s0.164-0.029,0.253-0.038c0.09-0.009,0.188-0.016,0.293-0.02c0.106-0.004,0.226-0.006,0.359-0.006c0.082,0,0.172,0.014,0.27,0.043
		c0.099,0.026,0.194,0.064,0.286,0.113s0.177,0.104,0.255,0.17c0.078,0.066,0.137,0.137,0.178,0.211
		c0.018,0.029,0.035,0.068,0.052,0.115s0.032,0.098,0.046,0.146c0.014,0.053,0.025,0.103,0.033,0.15
		c0.008,0.049,0.012,0.096,0.012,0.133c0,0.194-0.076,0.395-0.229,0.596c-0.154,0.205-0.375,0.43-0.667,0.675
		c0.174,0.054,0.338,0.126,0.495,0.215c0.156,0.09,0.292,0.192,0.41,0.308c0.118,0.114,0.211,0.237,0.28,0.367
		C21.185,4.319,21.22,4.45,21.22,4.584z"/>
	<path fill="#FFFFFF" d="M28.793,3.261c0,0.021-0.002,0.041-0.008,0.063c-0.004,0.021-0.014,0.043-0.025,0.068
		c-0.094,0.184-0.201,0.374-0.326,0.571c-0.126,0.196-0.262,0.389-0.408,0.575c-0.146,0.188-0.302,0.367-0.463,0.537
		c-0.161,0.168-0.322,0.313-0.484,0.439c-0.162,0.127-0.322,0.229-0.481,0.303c-0.158,0.073-0.31,0.11-0.452,0.11
		c-0.146,0-0.279-0.021-0.4-0.065c-0.123-0.045-0.228-0.117-0.316-0.218c-0.09-0.1-0.159-0.228-0.209-0.384
		c-0.05-0.156-0.075-0.346-0.075-0.566c-0.041,0.065-0.09,0.142-0.148,0.225s-0.119,0.167-0.184,0.252
		c-0.065,0.084-0.133,0.166-0.203,0.244c-0.07,0.08-0.14,0.147-0.209,0.207c-0.062,0.055-0.138,0.119-0.228,0.192
		c-0.091,0.075-0.194,0.148-0.311,0.22c-0.116,0.069-0.245,0.131-0.385,0.185c-0.14,0.053-0.292,0.083-0.453,0.091
		c-0.209,0-0.375-0.037-0.497-0.109c-0.122-0.071-0.213-0.166-0.274-0.278c-0.061-0.114-0.1-0.239-0.117-0.377
		c-0.017-0.14-0.025-0.272-0.025-0.403c0-0.013,0.002-0.048,0.006-0.105c0.003-0.061,0.01-0.131,0.019-0.219
		c0.009-0.089,0.021-0.187,0.038-0.296c0.017-0.106,0.037-0.221,0.062-0.338c0.024-0.118,0.053-0.233,0.086-0.354
		c0.033-0.116,0.071-0.229,0.115-0.334c0.023-0.053,0.045-0.104,0.067-0.146c0.021-0.045,0.046-0.083,0.075-0.113
		c0.029-0.033,0.063-0.06,0.104-0.078c0.041-0.021,0.092-0.033,0.153-0.035c0.08,0,0.145,0.014,0.198,0.039
		c0.052,0.026,0.095,0.063,0.126,0.104c0.031,0.041,0.054,0.087,0.067,0.139c0.013,0.051,0.02,0.103,0.02,0.149
		c0,0.038-0.018,0.104-0.052,0.203c-0.035,0.097-0.072,0.217-0.113,0.36c-0.041,0.143-0.079,0.307-0.113,0.489
		C22.934,4.79,22.916,4.989,22.916,5.2c0,0.106,0.018,0.191,0.054,0.256c0.036,0.063,0.083,0.095,0.142,0.095
		c0.082,0,0.162-0.013,0.24-0.039c0.078-0.024,0.154-0.06,0.228-0.101c0.074-0.041,0.146-0.088,0.217-0.142
		c0.07-0.052,0.137-0.104,0.201-0.157c0.077-0.063,0.161-0.146,0.251-0.244c0.09-0.103,0.179-0.207,0.266-0.317
		c0.087-0.111,0.167-0.22,0.242-0.327c0.075-0.107,0.133-0.201,0.177-0.279c0.023-0.041,0.05-0.097,0.081-0.164
		c0.03-0.066,0.06-0.139,0.088-0.213s0.054-0.146,0.077-0.213c0.023-0.068,0.04-0.121,0.05-0.162
		c0.008-0.035,0.015-0.068,0.021-0.095s0.013-0.054,0.019-0.082s0.015-0.058,0.025-0.089c0.01-0.03,0.023-0.064,0.038-0.104
		c0.01-0.025,0.03-0.056,0.059-0.084c0.027-0.028,0.061-0.057,0.098-0.08s0.077-0.045,0.119-0.063s0.083-0.023,0.121-0.023
		c0.115,0,0.204,0.031,0.266,0.099c0.062,0.063,0.094,0.146,0.1,0.239c-0.01,0.052-0.028,0.136-0.053,0.254
		c-0.023,0.119-0.049,0.252-0.074,0.398S25.92,3.864,25.901,4.02c-0.019,0.157-0.026,0.304-0.026,0.433
		c0,0.227,0.031,0.4,0.094,0.531c0.063,0.129,0.152,0.193,0.267,0.193c0.087,0,0.179-0.023,0.274-0.072
		c0.096-0.047,0.195-0.107,0.297-0.188c0.102-0.079,0.206-0.172,0.309-0.274c0.104-0.103,0.206-0.212,0.307-0.327
		c0.102-0.115,0.199-0.229,0.291-0.349c0.095-0.118,0.183-0.229,0.265-0.334c0.117-0.153,0.226-0.281,0.321-0.382
		C28.396,3.147,28.49,3.1,28.582,3.1c0.017,0,0.035,0.003,0.061,0.009c0.025,0.004,0.048,0.014,0.07,0.026s0.043,0.028,0.06,0.05
		S28.793,3.228,28.793,3.261z"/>
	<path fill="#FFFFFF" d="M31.435,3.683c-0.028,0.059-0.065,0.104-0.11,0.141c-0.046,0.033-0.097,0.06-0.152,0.071
		c-0.057,0.015-0.111,0.022-0.168,0.022c-0.047,0-0.092-0.008-0.139-0.021c-0.047-0.013-0.094-0.02-0.143-0.02
		c-0.082,0-0.182,0.023-0.301,0.072c-0.119,0.051-0.241,0.115-0.366,0.194s-0.248,0.168-0.368,0.265
		c-0.12,0.1-0.225,0.193-0.311,0.289c-0.049,0.055-0.105,0.116-0.17,0.191c-0.063,0.076-0.125,0.155-0.182,0.236
		c-0.059,0.082-0.105,0.164-0.146,0.246c-0.039,0.082-0.06,0.156-0.06,0.223c0,0.081,0.009,0.178,0.025,0.287
		s0.024,0.227,0.024,0.35c0,0.043,0,0.083-0.002,0.12s-0.008,0.074-0.018,0.109c-0.005,0.03-0.021,0.063-0.049,0.102
		c-0.026,0.037-0.061,0.072-0.102,0.107c-0.041,0.034-0.086,0.063-0.135,0.087c-0.049,0.021-0.1,0.033-0.148,0.033
		c-0.084,0-0.156-0.03-0.215-0.092c-0.06-0.063-0.105-0.146-0.141-0.257S28,6.2,27.985,6.051c-0.015-0.147-0.022-0.31-0.022-0.479
		c0-0.011,0-0.045,0.002-0.104c0.002-0.061,0.002-0.123,0.005-0.189c0.001-0.069,0.003-0.138,0.005-0.201
		c0.003-0.063,0.004-0.104,0.004-0.121c0-0.012,0.002-0.045,0.006-0.101c0.004-0.058,0.01-0.127,0.016-0.206
		c0.008-0.08,0.014-0.169,0.021-0.262c0.006-0.094,0.013-0.184,0.019-0.268c0.008-0.084,0.014-0.158,0.019-0.226
		c0.005-0.065,0.009-0.106,0.012-0.128c0.002-0.008,0.007-0.033,0.011-0.078c0.002-0.046,0.008-0.097,0.015-0.154
		c0.007-0.061,0.015-0.119,0.024-0.182s0.021-0.111,0.03-0.152c0.011-0.035,0.031-0.078,0.063-0.127
		c0.031-0.049,0.072-0.097,0.123-0.142c0.049-0.044,0.104-0.083,0.166-0.114s0.127-0.048,0.195-0.048
		c0.082,0,0.147,0.013,0.197,0.038c0.05,0.026,0.09,0.057,0.119,0.094s0.049,0.078,0.061,0.119c0.01,0.043,0.014,0.08,0.014,0.113
		c0,0.021-0.008,0.064-0.021,0.136c-0.016,0.07-0.036,0.148-0.063,0.232c-0.03,0.112-0.058,0.243-0.08,0.393
		s-0.041,0.294-0.055,0.433c0.141-0.157,0.293-0.318,0.453-0.48c0.161-0.162,0.328-0.311,0.502-0.439
		c0.174-0.131,0.352-0.238,0.533-0.321s0.363-0.124,0.545-0.124c0.09,0,0.17,0.014,0.241,0.043s0.133,0.068,0.183,0.115
		c0.051,0.047,0.088,0.1,0.115,0.156c0.025,0.059,0.04,0.115,0.04,0.176V3.46C31.479,3.551,31.463,3.624,31.435,3.683z"/>
	<path fill="#FFFFFF" d="M38.602,3.92c0,0.049-0.012,0.102-0.027,0.159c-0.018,0.057-0.039,0.115-0.066,0.17
		c-0.025,0.058-0.057,0.109-0.088,0.16c-0.031,0.05-0.063,0.092-0.09,0.125c-0.082,0.103-0.176,0.211-0.273,0.326
		c-0.102,0.112-0.205,0.229-0.316,0.34c-0.109,0.111-0.223,0.221-0.338,0.323c-0.113,0.104-0.23,0.193-0.344,0.271
		c-0.092,0.062-0.178,0.116-0.262,0.17c-0.082,0.053-0.168,0.1-0.256,0.141c-0.09,0.041-0.184,0.073-0.279,0.097
		c-0.1,0.022-0.205,0.033-0.324,0.033c-0.191,0-0.352-0.037-0.479-0.113s-0.229-0.18-0.311-0.309
		c-0.078-0.127-0.141-0.273-0.182-0.439c-0.043-0.163-0.074-0.336-0.1-0.514c-0.033-0.244-0.07-0.438-0.109-0.578
		c-0.041-0.143-0.092-0.213-0.15-0.213c-0.051,0-0.102,0.012-0.148,0.035c-0.047,0.024-0.107,0.077-0.182,0.156
		c-0.072,0.079-0.166,0.193-0.275,0.348c-0.109,0.152-0.256,0.354-0.438,0.607c-0.063,0.087-0.135,0.184-0.225,0.291
		c-0.088,0.107-0.182,0.21-0.277,0.309c-0.098,0.1-0.193,0.188-0.289,0.262c-0.098,0.074-0.186,0.127-0.268,0.156
		c-0.321-0.072-0.482-0.381-0.482-0.926c0-0.138,0.016-0.341,0.046-0.609c0.015-0.119,0.032-0.246,0.052-0.379
		c0.02-0.134,0.043-0.269,0.072-0.4c0.029-0.137,0.064-0.268,0.105-0.396s0.089-0.248,0.143-0.355
		c0.03-0.063,0.064-0.11,0.104-0.146c0.039-0.035,0.078-0.063,0.117-0.081c0.039-0.018,0.082-0.028,0.125-0.034
		c0.043-0.004,0.086-0.008,0.131-0.008c0.037,0,0.074,0.01,0.109,0.028c0.037,0.019,0.068,0.047,0.098,0.083
		c0.027,0.035,0.049,0.079,0.066,0.13c0.016,0.052,0.023,0.11,0.023,0.177c0,0.059-0.006,0.115-0.016,0.17
		c-0.012,0.053-0.025,0.107-0.043,0.166C33.139,3.708,33.121,3.77,33.1,3.833c-0.02,0.064-0.039,0.139-0.061,0.221
		c-0.012,0.055-0.029,0.123-0.055,0.207c-0.027,0.084-0.049,0.171-0.072,0.262c-0.023,0.092-0.047,0.182-0.066,0.27
		c-0.021,0.086-0.033,0.16-0.039,0.219c0.047-0.055,0.1-0.121,0.158-0.202c0.061-0.08,0.123-0.167,0.189-0.261
		s0.135-0.188,0.203-0.285s0.139-0.189,0.207-0.275c0.09-0.113,0.178-0.22,0.266-0.317c0.086-0.101,0.18-0.188,0.273-0.261
		c0.096-0.071,0.201-0.131,0.313-0.172c0.113-0.043,0.238-0.063,0.379-0.063c0.166,0,0.305,0.031,0.406,0.102
		c0.104,0.068,0.189,0.161,0.252,0.281c0.063,0.121,0.107,0.264,0.143,0.428c0.027,0.166,0.055,0.346,0.07,0.539
		c0.01,0.102,0.021,0.202,0.041,0.309c0.018,0.104,0.041,0.199,0.074,0.285c0.031,0.086,0.076,0.154,0.131,0.211
		c0.053,0.055,0.119,0.082,0.197,0.082c0.117,0,0.246-0.031,0.387-0.096c0.141-0.063,0.285-0.146,0.438-0.258
		c0.152-0.109,0.313-0.236,0.473-0.384c0.16-0.146,0.322-0.304,0.482-0.47c0.051-0.053,0.102-0.105,0.146-0.157
		c0.049-0.054,0.094-0.103,0.137-0.144c0.045-0.043,0.086-0.076,0.127-0.102s0.082-0.038,0.123-0.038
		c0.016,0,0.033,0.001,0.055,0.005s0.039,0.012,0.059,0.021c0.02,0.013,0.031,0.027,0.043,0.05
		C38.594,3.856,38.602,3.885,38.602,3.92z"/>
	<path fill="#FFFFFF" d="M43.229,3.319c0,0.049-0.018,0.101-0.047,0.153c-0.033,0.056-0.074,0.11-0.123,0.165
		c-0.051,0.055-0.105,0.109-0.172,0.164c-0.063,0.054-0.129,0.102-0.191,0.146c-0.063,0.043-0.125,0.084-0.182,0.116
		c-0.059,0.033-0.105,0.06-0.145,0.076c-0.07,0.028-0.158,0.056-0.268,0.078s-0.225,0.045-0.34,0.063
		c-0.119,0.017-0.234,0.028-0.348,0.041c-0.109,0.01-0.205,0.016-0.283,0.016c-0.018,0-0.041-0.003-0.072-0.008
		c-0.031-0.004-0.066-0.008-0.105-0.018c-0.037-0.008-0.074-0.018-0.111-0.027c-0.035-0.013-0.066-0.025-0.094-0.045
		c0.027,0.061,0.045,0.123,0.049,0.192c0.004,0.07,0.008,0.142,0.008,0.21c0,0.049-0.008,0.104-0.018,0.174
		c-0.012,0.065-0.021,0.135-0.041,0.202c-0.018,0.068-0.037,0.136-0.061,0.199c-0.021,0.063-0.047,0.117-0.072,0.161
		c-0.063,0.107-0.133,0.211-0.205,0.303c-0.072,0.094-0.154,0.18-0.242,0.257c-0.09,0.079-0.189,0.153-0.305,0.224
		c-0.111,0.07-0.242,0.138-0.391,0.203c-0.158,0.068-0.318,0.117-0.477,0.145c-0.158,0.025-0.322,0.041-0.492,0.041
		c-0.125,0-0.234-0.034-0.332-0.1c-0.098-0.064-0.18-0.151-0.246-0.264c-0.066-0.107-0.115-0.234-0.15-0.379
		c-0.033-0.145-0.053-0.293-0.053-0.447c0-0.039,0.004-0.089,0.01-0.146c0.008-0.059,0.018-0.115,0.027-0.174
		c0.012-0.061,0.023-0.116,0.037-0.174c0.016-0.057,0.027-0.104,0.041-0.143c0.035-0.107,0.088-0.23,0.154-0.367
		c0.068-0.139,0.148-0.281,0.24-0.425c0.092-0.146,0.191-0.286,0.307-0.426c0.113-0.14,0.232-0.265,0.359-0.372
		c0.125-0.109,0.258-0.195,0.395-0.264c0.137-0.066,0.273-0.101,0.412-0.101c0.061,0,0.105,0.007,0.143,0.019
		c0.035,0.012,0.064,0.027,0.088,0.046c0.023,0.021,0.045,0.041,0.063,0.065c0.02,0.022,0.041,0.049,0.064,0.069
		c0.018-0.005,0.035-0.009,0.055-0.011c0.02-0.004,0.039-0.004,0.061-0.004c0.078,0,0.156,0.029,0.232,0.092
		c0.078,0.063,0.156,0.129,0.234,0.203c0.033,0.031,0.07,0.064,0.107,0.102c0.037,0.034,0.07,0.064,0.104,0.094
		c0.029,0.024,0.059,0.049,0.082,0.063c0.023,0.017,0.043,0.024,0.053,0.024c0.066,0,0.139-0.002,0.217-0.004
		c0.078,0,0.156-0.004,0.236-0.008c0.082-0.004,0.16-0.009,0.232-0.017c0.076-0.009,0.146-0.017,0.205-0.026
		c0.01-0.003,0.041-0.012,0.102-0.023c0.059-0.016,0.131-0.032,0.213-0.055c0.084-0.021,0.174-0.045,0.27-0.07
		c0.1-0.025,0.189-0.051,0.271-0.071s0.154-0.039,0.215-0.054c0.063-0.016,0.096-0.021,0.105-0.021c0.051,0,0.092,0.008,0.123,0.021
		C43.213,3.224,43.229,3.26,43.229,3.319z M38.805,5.876c0.207,0,0.391-0.055,0.549-0.165c0.16-0.109,0.295-0.257,0.404-0.439
		s0.195-0.391,0.256-0.625c0.061-0.233,0.092-0.475,0.094-0.723c-0.018-0.038-0.043-0.077-0.078-0.118
		c-0.033-0.041-0.072-0.078-0.115-0.109c-0.045-0.033-0.09-0.059-0.137-0.078c-0.045-0.021-0.088-0.029-0.125-0.029
		c-0.063,0-0.129,0.023-0.199,0.07c-0.072,0.051-0.139,0.101-0.199,0.15c-0.061,0.051-0.123,0.117-0.184,0.2
		s-0.115,0.177-0.166,0.278c-0.053,0.103-0.1,0.209-0.143,0.324c-0.045,0.111-0.08,0.226-0.111,0.336
		c-0.029,0.11-0.055,0.221-0.07,0.325c-0.018,0.104-0.023,0.197-0.023,0.278c0,0.041,0.008,0.081,0.02,0.119
		c0.014,0.038,0.031,0.072,0.053,0.104c0.021,0.03,0.047,0.055,0.078,0.072C38.734,5.866,38.768,5.876,38.805,5.876z"/>
	<path fill="#FFFFFF" d="M49.354,3.587c0,0.143-0.049,0.3-0.15,0.473c-0.102,0.174-0.23,0.348-0.395,0.521s-0.346,0.343-0.545,0.506
		c-0.201,0.164-0.402,0.309-0.604,0.435c-0.201,0.127-0.391,0.229-0.57,0.306c-0.178,0.078-0.326,0.115-0.443,0.115
		c-0.164,0-0.303-0.035-0.416-0.104c-0.113-0.07-0.209-0.163-0.283-0.279c-0.074-0.114-0.135-0.249-0.18-0.397
		c-0.043-0.149-0.074-0.305-0.096-0.461c-0.039,0.092-0.09,0.189-0.152,0.299c-0.063,0.105-0.133,0.214-0.207,0.316
		c-0.074,0.104-0.148,0.203-0.227,0.299c-0.074,0.092-0.145,0.174-0.209,0.238c-0.088,0.096-0.188,0.188-0.295,0.271
		c-0.105,0.089-0.223,0.166-0.346,0.232c-0.121,0.066-0.252,0.119-0.389,0.159c-0.139,0.039-0.279,0.06-0.43,0.06
		c-0.125,0-0.234-0.024-0.332-0.078C42.99,6.444,42.91,6.378,42.85,6.293c-0.064-0.084-0.113-0.183-0.146-0.29
		c-0.031-0.108-0.047-0.219-0.047-0.327c0-0.099,0.008-0.198,0.023-0.304c0.016-0.104,0.033-0.207,0.055-0.313
		c0.021-0.104,0.041-0.211,0.061-0.313c0.021-0.104,0.033-0.203,0.041-0.301c0.004-0.074,0.012-0.152,0.018-0.238
		c0.004-0.084,0.01-0.17,0.014-0.256c0.006-0.084,0.014-0.17,0.021-0.256s0.021-0.166,0.031-0.24
		c0.012-0.053,0.025-0.104,0.045-0.152s0.047-0.092,0.082-0.129c0.037-0.037,0.082-0.066,0.137-0.088
		c0.057-0.021,0.123-0.032,0.203-0.032c0.16,0,0.271,0.047,0.338,0.144c0.066,0.098,0.1,0.241,0.1,0.438
		c0,0.061-0.006,0.127-0.012,0.203c-0.008,0.076-0.02,0.154-0.031,0.238c-0.012,0.082-0.027,0.166-0.045,0.252
		c-0.016,0.084-0.033,0.164-0.055,0.24c-0.043,0.172-0.084,0.338-0.123,0.5S43.5,5.377,43.5,5.504c0,0.082,0.016,0.149,0.045,0.204
		c0.029,0.054,0.064,0.08,0.109,0.08c0.109,0,0.223-0.034,0.342-0.104c0.119-0.065,0.234-0.149,0.348-0.253
		c0.113-0.102,0.221-0.211,0.32-0.33c0.102-0.117,0.188-0.229,0.258-0.327c0.068-0.092,0.135-0.204,0.203-0.341
		c0.066-0.136,0.133-0.277,0.199-0.429c0.064-0.15,0.127-0.3,0.189-0.444c0.061-0.146,0.113-0.275,0.162-0.389
		c0.066-0.151,0.146-0.27,0.23-0.352c0.088-0.08,0.172-0.121,0.254-0.121c0.096,0,0.168,0.02,0.215,0.059
		c0.045,0.038,0.068,0.107,0.068,0.211c0,0.041-0.006,0.104-0.016,0.188c-0.012,0.084-0.021,0.172-0.035,0.267
		c-0.014,0.094-0.023,0.184-0.035,0.271c-0.01,0.086-0.016,0.149-0.016,0.192c0,0.041,0.002,0.091,0.002,0.147
		c0.002,0.062,0.004,0.119,0.006,0.184c0.004,0.063,0.008,0.124,0.016,0.183c0.006,0.062,0.014,0.109,0.021,0.15
		c0.01,0.043,0.025,0.1,0.051,0.168c0.02,0.067,0.051,0.136,0.086,0.201c0.033,0.063,0.072,0.12,0.111,0.169
		c0.041,0.047,0.086,0.07,0.131,0.07c0.135,0,0.273-0.035,0.424-0.104c0.148-0.068,0.303-0.16,0.459-0.271
		c0.156-0.109,0.313-0.235,0.471-0.377c0.156-0.142,0.311-0.281,0.457-0.422c0.063-0.06,0.123-0.119,0.184-0.18
		s0.117-0.113,0.174-0.161c0.059-0.047,0.107-0.086,0.156-0.116c0.051-0.029,0.092-0.045,0.127-0.045c0.041,0,0.074,0.012,0.1,0.037
		C49.34,3.546,49.354,3.567,49.354,3.587z"/>
	<path fill="#FFFFFF" d="M52,3.173c0,0.063-0.02,0.115-0.057,0.158c-0.037,0.041-0.082,0.076-0.135,0.103
		c-0.057,0.026-0.111,0.043-0.176,0.056c-0.061,0.013-0.115,0.021-0.168,0.024c-0.189,0.013-0.385,0.029-0.574,0.052
		c-0.191,0.021-0.365,0.043-0.521,0.063c-0.154,0.02-0.281,0.035-0.383,0.05c-0.1,0.017-0.152,0.021-0.16,0.021
		c-0.018,0.068-0.039,0.155-0.064,0.263c-0.027,0.104-0.057,0.217-0.086,0.339c-0.027,0.121-0.059,0.245-0.086,0.372
		c-0.027,0.126-0.055,0.248-0.078,0.36c-0.023,0.115-0.045,0.221-0.059,0.313c-0.016,0.093-0.021,0.167-0.021,0.222
		c0,0.043,0.004,0.098,0.012,0.161c0.012,0.065,0.025,0.13,0.051,0.191c0.021,0.061,0.053,0.112,0.092,0.157
		c0.037,0.045,0.086,0.066,0.146,0.066c0.041,0,0.092-0.009,0.15-0.025c0.063-0.02,0.129-0.045,0.199-0.084
		c0.072-0.039,0.148-0.088,0.23-0.148s0.164-0.133,0.246-0.221c0.025-0.026,0.057-0.057,0.088-0.088
		c0.033-0.029,0.068-0.06,0.107-0.082c0.037-0.024,0.078-0.045,0.123-0.063s0.094-0.022,0.143-0.022c0.076,0,0.129,0.017,0.156,0.05
		c0.027,0.032,0.043,0.075,0.043,0.127c0,0.103-0.029,0.194-0.09,0.28c-0.059,0.084-0.133,0.179-0.223,0.282
		c-0.041,0.05-0.104,0.113-0.193,0.196c-0.088,0.083-0.191,0.165-0.314,0.245c-0.121,0.081-0.256,0.149-0.404,0.211
		s-0.309,0.091-0.475,0.091c-0.162,0-0.297-0.021-0.408-0.063C49,6.786,48.908,6.73,48.836,6.665
		c-0.072-0.068-0.131-0.146-0.172-0.234s-0.068-0.178-0.09-0.27c-0.02-0.092-0.029-0.185-0.033-0.272s-0.006-0.17-0.006-0.241
		c0-0.076,0.008-0.166,0.023-0.268s0.037-0.207,0.061-0.319s0.049-0.229,0.078-0.348c0.029-0.119,0.057-0.232,0.078-0.343
		c0.021-0.107,0.043-0.207,0.061-0.299c0.018-0.095,0.023-0.17,0.023-0.234c0-0.016-0.002-0.029-0.006-0.042
		s-0.014-0.024-0.027-0.033s-0.039-0.017-0.072-0.021c-0.031-0.004-0.08-0.004-0.139-0.004c-0.066,0-0.139-0.004-0.215-0.009
		c-0.074-0.003-0.145-0.017-0.209-0.039c-0.063-0.021-0.115-0.061-0.158-0.108c-0.041-0.051-0.063-0.12-0.063-0.213
		c0-0.06,0.008-0.107,0.027-0.147c0.02-0.039,0.045-0.071,0.076-0.097c0.031-0.023,0.068-0.041,0.111-0.051
		c0.043-0.012,0.088-0.018,0.137-0.021l0.809-0.034c0.016-0.027,0.039-0.083,0.072-0.165s0.072-0.18,0.113-0.29
		c0.043-0.109,0.086-0.229,0.129-0.354s0.084-0.243,0.119-0.354c0.051-0.16,0.115-0.271,0.193-0.343
		c0.08-0.069,0.186-0.104,0.314-0.104c0.084,0,0.148,0.013,0.195,0.033c0.045,0.021,0.078,0.049,0.1,0.082
		c0.023,0.033,0.031,0.07,0.037,0.112c0.004,0.042,0.006,0.083,0.006,0.122c0,0.01-0.008,0.039-0.021,0.088
		c-0.016,0.049-0.033,0.107-0.057,0.178c-0.021,0.071-0.049,0.148-0.076,0.232s-0.057,0.169-0.086,0.255
		c-0.029,0.085-0.059,0.167-0.086,0.245c-0.025,0.078-0.049,0.146-0.064,0.201c0.029-0.002,0.08-0.008,0.15-0.016
		c0.07-0.009,0.15-0.018,0.242-0.024c0.092-0.009,0.189-0.02,0.291-0.027s0.195-0.019,0.283-0.026
		c0.088-0.006,0.164-0.016,0.229-0.021s0.107-0.008,0.127-0.008c0.141,0,0.25,0.007,0.338,0.021c0.086,0.014,0.15,0.036,0.195,0.063
		c0.047,0.028,0.078,0.063,0.092,0.104C51.992,3.067,52,3.116,52,3.173z"/>
</g>
</svg>
