<?xml version="1.0" encoding="utf-8"?>
<!-- Generator: Adobe Illustrator 16.0.0, SVG Export Plug-In . SVG Version: 6.00 Build 0)  -->
<!DOCTYPE svg PUBLIC "-//W3C//DTD SVG 1.1//EN" "http://www.w3.org/Graphics/SVG/1.1/DTD/svg11.dtd">
<svg version="1.1" id="Capa_1" xmlns="http://www.w3.org/2000/svg" xmlns:xlink="http://www.w3.org/1999/xlink" x="0px" y="0px"
	 width="100px" height="100px" viewBox="0 0 100 100" enable-background="new 0 0 100 100" xml:space="preserve">
<g>
	<g>
		<path fill="#3D3B39" d="M100,49.999C100,22.386,77.611,0,49.998,0C22.388,0,0,22.386,0,49.999C0,77.614,22.388,100,49.998,100
			C77.611,100,100,77.614,100,49.999z"/>
		<path fill="#FFFFFF" d="M77.751,15.969c-4.424-3.612-9.569-6.369-15.185-8.042l-14.106,8.88l29.291,17.028l15.537,9.028
			C91.521,32.07,85.861,22.596,77.751,15.969z"/>
		<path fill="#3D3B39" d="M93.288,43.837c-0.17,0-0.338-0.044-0.491-0.132L47.972,17.648c-0.295-0.169-0.479-0.482-0.485-0.824
			c-0.006-0.34,0.167-0.66,0.456-0.84l14.106-8.883c0.238-0.148,0.53-0.187,0.799-0.108c5.699,1.7,10.92,4.465,15.519,8.222
			c8.473,6.92,14.114,16.683,15.885,27.491c0.06,0.372-0.103,0.745-0.409,0.958C93.674,43.779,93.48,43.837,93.288,43.837z
			 M50.342,16.774l41.594,24.177c-2.035-9.512-7.24-18.052-14.801-24.229c-4.285-3.5-9.138-6.1-14.423-7.735L50.342,16.774z"/>
		<path fill="#FFFFFF" d="M49.998,6.079c-5.363,0-10.479,1.009-15.233,2.769c-4.352,1.612-8.379,3.874-11.956,6.7v17.416
			L48.46,16.807l14.106-8.88C58.587,6.738,54.371,6.079,49.998,6.079z"/>
		<path fill="#3D3B39" d="M22.809,33.937c-0.162,0-0.323-0.04-0.471-0.122c-0.309-0.171-0.503-0.497-0.503-0.852V15.547
			c0-0.298,0.136-0.579,0.371-0.764c3.667-2.898,7.778-5.203,12.221-6.85c9.248-3.422,19.126-3.717,28.421-0.94
			c0.366,0.108,0.633,0.422,0.687,0.801c0.05,0.379-0.122,0.753-0.446,0.956L23.329,33.788
			C23.17,33.887,22.989,33.937,22.809,33.937z M23.783,16.022V31.2L60.172,8.285c-8.27-2.023-16.914-1.542-25.068,1.475
			C31.002,11.28,27.196,13.387,23.783,16.022z"/>
		<path fill="#FFFFFF" d="M6.672,43.126c-0.354,2.244-0.59,4.527-0.59,6.873c0,2.346,0.235,4.629,0.59,6.873l16.137,10.163V32.962
			V15.547C14.339,22.243,8.427,31.982,6.672,43.126z"/>
		<path fill="#3D3B39" d="M22.809,68.008c-0.181,0-0.36-0.051-0.518-0.148L6.153,57.695c-0.237-0.149-0.398-0.395-0.442-0.672
			c-0.407-2.567-0.604-4.864-0.604-7.024s0.197-4.458,0.604-7.023c1.756-11.161,7.615-21.173,16.495-28.192
			c0.292-0.232,0.691-0.275,1.027-0.113c0.337,0.164,0.549,0.504,0.549,0.877v51.488c0,0.354-0.192,0.682-0.502,0.853
			C23.134,67.969,22.97,68.008,22.809,68.008z M7.567,56.285l14.268,8.986V17.619c-7.61,6.622-12.627,15.658-14.201,25.659
			c-0.39,2.465-0.58,4.663-0.58,6.721C7.055,51.934,7.223,53.992,7.567,56.285z"/>
		<path fill="#FFFFFF" d="M93.288,42.863l-15.537-9.028v32.33v17.869c8.11-6.628,13.771-16.104,15.537-26.898
			c0.385-2.329,0.63-4.7,0.63-7.137C93.918,47.562,93.673,45.192,93.288,42.863z"/>
		<path fill="#3D3B39" d="M77.751,85.006c-0.142,0-0.287-0.031-0.419-0.092c-0.339-0.164-0.557-0.503-0.557-0.88V33.835
			c0-0.349,0.186-0.67,0.488-0.845c0.301-0.175,0.672-0.174,0.977,0.003l15.535,9.027c0.25,0.146,0.425,0.397,0.475,0.684
			c0.432,2.615,0.641,5,0.641,7.294s-0.209,4.682-0.641,7.294c-1.771,10.812-7.412,20.577-15.885,27.492
			C78.189,84.934,77.971,85.006,77.751,85.006z M78.725,35.526v46.388c7.221-6.508,12.023-15.286,13.603-24.938
			c0.415-2.508,0.616-4.791,0.616-6.979c0-2.054-0.178-4.194-0.543-6.525L78.725,35.526z"/>
		<path fill="#FFFFFF" d="M48.46,83.189l-13.698,7.963c4.752,1.761,9.868,2.771,15.235,2.771c4.376,0,8.589-0.659,12.573-1.849
			c5.613-1.678,10.756-4.432,15.18-8.04V66.165L48.46,83.189z"/>
		<path fill="#3D3B39" d="M49.998,94.896c-5.263,0-10.504-0.953-15.574-2.832c-0.353-0.131-0.6-0.453-0.632-0.83
			c-0.032-0.375,0.154-0.734,0.481-0.926L77.26,65.32c0.301-0.176,0.674-0.176,0.977-0.002c0.302,0.174,0.488,0.496,0.488,0.847
			v17.869c0,0.291-0.133,0.569-0.358,0.752c-4.597,3.752-9.814,6.519-15.517,8.223C58.65,94.261,54.328,94.896,49.998,94.896z
			 M37.091,90.924c8.252,2.625,16.96,2.676,25.201,0.221c5.306-1.59,10.176-4.136,14.483-7.576V67.854L37.091,90.924z"/>
		<path fill="#FFFFFF" d="M22.809,67.035L6.672,56.872c1.755,11.146,7.667,20.886,16.137,27.58c3.577,2.825,7.603,5.087,11.954,6.7
			l13.697-7.963L22.809,67.035z"/>
		<path fill="#3D3B39" d="M34.763,92.126c-0.114,0-0.229-0.021-0.338-0.062c-4.436-1.646-8.547-3.95-12.218-6.85
			C13.327,78.202,7.468,68.188,5.71,57.023c-0.059-0.379,0.107-0.756,0.426-0.967c0.32-0.209,0.732-0.215,1.055-0.009l41.79,26.318
			c0.288,0.183,0.46,0.502,0.454,0.84c-0.006,0.344-0.189,0.655-0.484,0.828l-13.698,7.958
			C35.101,92.081,34.933,92.126,34.763,92.126z M8.03,58.878c2.059,9.808,7.465,18.556,15.382,24.81
			c3.393,2.682,7.18,4.83,11.261,6.393l11.907-6.919L8.03,58.878z"/>
	</g>
	<g>
		<circle fill="#F4F0EB" cx="49.999" cy="50.001" r="18.555"/>
		<circle fill="#3D3B39" cx="50" cy="50.001" r="15.587"/>
		<g>
			<path fill="#F4F0EB" d="M62.322,46.857c-0.961-3.773-3.672-6.958-7.25-8.517l0.346-0.793c3.82,1.664,6.715,5.065,7.742,9.096
				L62.322,46.857z"/>
		</g>
		<g>
			<path fill="#F4F0EB" d="M47.989,63.432c-3.896-0.578-7.346-2.828-9.466-6.171l0.731-0.465c1.984,3.13,5.215,5.238,8.862,5.78
				L47.989,63.432z"/>
		</g>
	</g>
</g>
</svg>
