<?xml version="1.0" encoding="utf-8"?>
<!-- Generator: Adobe Illustrator 16.0.0, SVG Export Plug-In . SVG Version: 6.00 Build 0)  -->
<!DOCTYPE svg PUBLIC "-//W3C//DTD SVG 1.1//EN" "http://www.w3.org/Graphics/SVG/1.1/DTD/svg11.dtd">
<svg version="1.1" id="Capa_1" xmlns="http://www.w3.org/2000/svg" xmlns:xlink="http://www.w3.org/1999/xlink" x="0px" y="0px"
	 width="40px" height="40px" viewBox="0 0 40 40" enable-background="new 0 0 40 40" xml:space="preserve">
<g>
	<g>
		<path fill="#DE3831" d="M28.049,0C24.74,0,21.811,1.616,20,4.101C18.19,1.616,15.26,0,11.952,0C6.456,0,2,4.456,2,9.952
			c0,8.363,18,21.847,18,21.847S38,18.315,38,9.952C38,4.456,33.545,0,28.049,0z"/>
	</g>
	<g>
		<path fill="#FFFFFF" d="M23.85,14.677C20.645,10.462,21.373,6.9,21.373,6.9c-11.291,9.566-6.218,14.375-5.817,14.775
			c0.958,0.953,1.72,1.56,1.729,3.226c0.714-0.713,3.07-2.297,0.869-5.799c0,0-1.967-2.745,1.591-5.322
			c-0.116,5.856,4.353,5.125,1.651,11.094C21.396,24.873,29.67,22.338,23.85,14.677z"/>
	</g>
</g>
<g>
	<path fill="#DE3831" d="M3.816,37.71c0,0.095-0.037,0.202-0.111,0.322c-0.074,0.12-0.174,0.245-0.299,0.376
		c-0.138,0.141-0.29,0.271-0.455,0.393c-0.165,0.122-0.336,0.227-0.514,0.314c-0.178,0.087-0.358,0.156-0.542,0.207
		c-0.184,0.05-0.363,0.074-0.537,0.074c-0.214,0-0.406-0.033-0.573-0.102s-0.309-0.168-0.426-0.3
		c-0.116-0.131-0.205-0.295-0.267-0.492C0.031,38.309,0,38.081,0,37.825c0-0.153,0.015-0.31,0.044-0.468
		c0.03-0.158,0.072-0.316,0.128-0.475c0.057-0.158,0.127-0.31,0.211-0.457c0.084-0.146,0.181-0.285,0.288-0.415
		c0.069-0.081,0.148-0.165,0.236-0.247c0.088-0.084,0.186-0.158,0.293-0.225c0.107-0.066,0.226-0.122,0.355-0.164
		c0.129-0.042,0.269-0.063,0.42-0.063c0.123,0,0.232,0.021,0.328,0.065c0.096,0.045,0.177,0.103,0.244,0.171
		c0.066,0.069,0.118,0.146,0.153,0.234c0.036,0.087,0.054,0.173,0.054,0.257c0,0.199-0.042,0.385-0.128,0.558
		c-0.085,0.174-0.205,0.338-0.358,0.495s-0.338,0.313-0.554,0.462c-0.216,0.151-0.455,0.307-0.715,0.465
		c-0.013,0.006-0.033,0.018-0.06,0.035c-0.027,0.016-0.04,0.028-0.04,0.033c0.002,0.053,0.015,0.105,0.038,0.165
		s0.059,0.114,0.107,0.165c0.049,0.051,0.111,0.094,0.186,0.128C1.306,38.58,1.396,38.6,1.501,38.6c0.161,0,0.323-0.023,0.487-0.068
		c0.164-0.045,0.325-0.108,0.483-0.192c0.159-0.085,0.313-0.188,0.464-0.308c0.15-0.12,0.294-0.256,0.429-0.406
		c0.051-0.059,0.102-0.102,0.151-0.127c0.05-0.025,0.097-0.038,0.14-0.038c0.043,0,0.081,0.019,0.113,0.054
		C3.8,37.551,3.816,37.616,3.816,37.71z M1.956,36.241c0-0.041-0.008-0.075-0.023-0.103c-0.016-0.027-0.033-0.048-0.052-0.063
		c-0.02-0.016-0.039-0.027-0.058-0.034c-0.02-0.006-0.033-0.009-0.041-0.009c-0.115,0-0.221,0.044-0.318,0.132
		c-0.097,0.088-0.184,0.202-0.261,0.34c-0.077,0.14-0.144,0.29-0.201,0.457c-0.058,0.166-0.105,0.327-0.144,0.481
		c0.154-0.116,0.297-0.226,0.43-0.324c0.133-0.1,0.249-0.197,0.347-0.292c0.098-0.095,0.176-0.188,0.234-0.283
		C1.927,36.45,1.956,36.35,1.956,36.241z"/>
	<path fill="#3D3B39" d="M9.22,37.53c0,0.122-0.012,0.239-0.035,0.351c-0.023,0.11-0.058,0.221-0.104,0.329s-0.104,0.22-0.173,0.329
		c-0.069,0.109-0.149,0.225-0.241,0.345c-0.054,0.066-0.109,0.132-0.165,0.193s-0.111,0.121-0.165,0.175
		c-0.054,0.055-0.106,0.104-0.157,0.146c-0.051,0.043-0.097,0.08-0.138,0.106c-0.082,0.06-0.188,0.116-0.318,0.175
		c-0.13,0.057-0.277,0.112-0.441,0.163c-0.158,0.052-0.313,0.091-0.464,0.116C6.668,39.986,6.527,40,6.397,40
		c-0.133,0-0.252-0.014-0.358-0.037S5.843,39.9,5.768,39.852c-0.074-0.053-0.131-0.117-0.171-0.194
		c-0.04-0.078-0.059-0.171-0.059-0.277c0-0.069,0.015-0.132,0.046-0.188c0.031-0.056,0.072-0.104,0.125-0.145
		c0.052-0.039,0.114-0.07,0.184-0.092s0.145-0.032,0.225-0.032c0.048,0,0.09,0.002,0.125,0.007c0.035,0.004,0.067,0.01,0.098,0.018
		c0.031,0.008,0.061,0.018,0.09,0.029c0.029,0.015,0.063,0.028,0.102,0.047c0.123,0.055,0.217,0.08,0.284,0.08
		c0.033,0,0.079-0.006,0.136-0.018c0.058-0.012,0.117-0.027,0.178-0.046c0.062-0.021,0.12-0.04,0.176-0.063
		c0.057-0.021,0.1-0.043,0.13-0.063c0.1-0.069,0.201-0.155,0.303-0.256c0.102-0.103,0.195-0.21,0.278-0.326s0.151-0.235,0.204-0.356
		c0.052-0.121,0.079-0.234,0.079-0.343c0-0.09-0.02-0.17-0.06-0.241c-0.04-0.072-0.09-0.136-0.151-0.191
		c-0.062-0.057-0.13-0.104-0.207-0.146c-0.077-0.041-0.151-0.074-0.223-0.1c-0.072-0.026-0.138-0.045-0.199-0.059
		c-0.062-0.013-0.109-0.02-0.142-0.02c-0.092,0-0.17,0.003-0.234,0.01c-0.065,0.006-0.123,0.014-0.172,0.025
		c-0.049,0.012-0.097,0.025-0.142,0.045c-0.045,0.018-0.093,0.038-0.144,0.063c-0.061,0.026-0.114,0.047-0.157,0.061
		c-0.043,0.014-0.088,0.02-0.134,0.02c-0.064,0-0.123-0.012-0.176-0.033c-0.053-0.021-0.099-0.049-0.136-0.086
		c-0.037-0.035-0.066-0.076-0.086-0.121c-0.02-0.047-0.03-0.094-0.03-0.14c0-0.084,0.013-0.161,0.04-0.229
		c0.027-0.069,0.063-0.13,0.109-0.181c0.046-0.05,0.098-0.09,0.157-0.121c0.059-0.033,0.12-0.055,0.184-0.066
		c0.036-0.008,0.076-0.014,0.121-0.016c0.045-0.004,0.088-0.006,0.13-0.008c0.042,0,0.08,0,0.111,0c0.032,0,0.052-0.002,0.06-0.005
		c0.056-0.032,0.124-0.075,0.201-0.126c0.078-0.052,0.159-0.109,0.244-0.172s0.169-0.128,0.253-0.195
		c0.084-0.07,0.161-0.14,0.229-0.207c0.067-0.067,0.122-0.132,0.163-0.192c0.041-0.062,0.062-0.115,0.062-0.161
		c0-0.096-0.043-0.166-0.128-0.213c-0.085-0.049-0.226-0.07-0.42-0.07c-0.153,0-0.328,0.016-0.523,0.046
		c-0.196,0.03-0.387,0.075-0.573,0.134c-0.08,0.025-0.159,0.058-0.238,0.092c-0.08,0.037-0.154,0.074-0.225,0.115
		c-0.071,0.041-0.133,0.086-0.19,0.131c-0.056,0.047-0.102,0.093-0.138,0.139c-0.008,0.011-0.014,0.036-0.02,0.077
		c-0.005,0.04-0.009,0.1-0.011,0.176c-0.002,0.077-0.006,0.174-0.01,0.292c-0.004,0.117-0.009,0.26-0.017,0.426
		c-0.005,0.107-0.01,0.195-0.014,0.266c-0.003,0.067-0.008,0.134-0.013,0.194c-0.005,0.062-0.012,0.125-0.019,0.191
		c-0.008,0.065-0.018,0.151-0.031,0.257c-0.021,0.146-0.039,0.285-0.056,0.419c-0.017,0.133-0.025,0.249-0.025,0.349v0.702
		c0,0.253-0.047,0.438-0.142,0.554c-0.094,0.117-0.234,0.176-0.418,0.176c-0.097,0-0.178-0.02-0.242-0.055s-0.114-0.09-0.151-0.16
		c-0.037-0.071-0.064-0.166-0.078-0.272s-0.021-0.231-0.021-0.372c0-0.003,0.004-0.031,0.011-0.087
		c0.008-0.055,0.018-0.124,0.029-0.207c0.012-0.083,0.024-0.174,0.039-0.272c0.015-0.1,0.027-0.194,0.04-0.285
		c0.013-0.088,0.024-0.17,0.033-0.239c0.009-0.07,0.015-0.116,0.017-0.14c0.003-0.01,0.007-0.051,0.014-0.117
		c0.007-0.067,0.015-0.149,0.025-0.245c0.01-0.097,0.021-0.198,0.031-0.31c0.01-0.108,0.021-0.213,0.031-0.311
		c0.01-0.098,0.019-0.182,0.027-0.249c0.007-0.069,0.011-0.11,0.011-0.123c0.023-0.196,0.035-0.313,0.035-0.353
		c0-0.028-0.002-0.062-0.008-0.096c-0.005-0.037-0.011-0.074-0.017-0.111c-0.006-0.036-0.012-0.069-0.018-0.1
		c-0.005-0.029-0.007-0.049-0.007-0.059c0-0.1,0.009-0.193,0.027-0.28s0.047-0.167,0.088-0.241c0.103-0.197,0.212-0.304,0.33-0.317
		c0.074-0.011,0.147-0.026,0.22-0.046c0.073-0.02,0.142-0.037,0.206-0.059c0.319-0.103,0.572-0.186,0.757-0.25
		c0.185-0.063,0.308-0.104,0.366-0.121c0.077-0.023,0.155-0.045,0.234-0.062s0.164-0.029,0.253-0.038
		c0.09-0.009,0.188-0.016,0.293-0.02c0.106-0.004,0.226-0.006,0.359-0.006c0.082,0,0.172,0.014,0.27,0.043
		c0.099,0.027,0.194,0.065,0.286,0.114s0.177,0.104,0.255,0.17c0.078,0.066,0.137,0.136,0.178,0.21
		c0.018,0.03,0.035,0.069,0.052,0.116s0.032,0.097,0.046,0.147c0.014,0.052,0.025,0.102,0.033,0.15
		c0.008,0.049,0.012,0.096,0.012,0.133c0,0.194-0.076,0.394-0.229,0.596C8.444,35.775,8.223,36,7.931,36.245
		c0.174,0.054,0.338,0.126,0.495,0.215c0.156,0.09,0.292,0.192,0.41,0.308c0.118,0.114,0.211,0.237,0.28,0.367
		C9.185,37.266,9.22,37.396,9.22,37.53z"/>
	<path fill="#3D3B39" d="M16.794,36.207c0,0.021-0.003,0.041-0.008,0.063c-0.005,0.021-0.014,0.043-0.026,0.068
		c-0.093,0.184-0.201,0.374-0.326,0.571c-0.126,0.196-0.262,0.389-0.408,0.575c-0.147,0.188-0.302,0.367-0.463,0.537
		c-0.161,0.168-0.322,0.314-0.484,0.44c-0.163,0.127-0.323,0.228-0.482,0.302c-0.158,0.074-0.309,0.111-0.452,0.111
		c-0.146,0-0.28-0.021-0.401-0.066c-0.122-0.045-0.227-0.117-0.316-0.217c-0.089-0.1-0.159-0.228-0.209-0.384
		c-0.05-0.156-0.075-0.345-0.075-0.567c-0.041,0.066-0.09,0.142-0.148,0.225s-0.119,0.167-0.184,0.252
		c-0.065,0.084-0.133,0.166-0.203,0.244c-0.07,0.08-0.14,0.148-0.209,0.207c-0.062,0.055-0.138,0.119-0.228,0.193
		c-0.091,0.075-0.194,0.148-0.311,0.219c-0.116,0.07-0.245,0.131-0.385,0.185c-0.14,0.053-0.292,0.083-0.453,0.091
		c-0.209,0-0.375-0.037-0.497-0.109s-0.213-0.166-0.274-0.279c-0.061-0.114-0.1-0.239-0.117-0.377
		c-0.017-0.139-0.025-0.272-0.025-0.403c0-0.013,0.002-0.048,0.006-0.106c0.003-0.06,0.01-0.131,0.019-0.219
		c0.009-0.088,0.021-0.186,0.038-0.295c0.017-0.107,0.037-0.221,0.062-0.338c0.024-0.118,0.053-0.234,0.086-0.354
		c0.033-0.117,0.071-0.229,0.115-0.334c0.023-0.053,0.045-0.104,0.067-0.147c0.021-0.045,0.046-0.083,0.075-0.114
		c0.029-0.033,0.063-0.059,0.104-0.078c0.041-0.021,0.092-0.033,0.153-0.035c0.08,0,0.145,0.014,0.198,0.039
		c0.052,0.027,0.095,0.063,0.126,0.104c0.031,0.041,0.054,0.087,0.067,0.139c0.013,0.051,0.02,0.102,0.02,0.149
		c0,0.038-0.018,0.104-0.052,0.203c-0.035,0.097-0.072,0.217-0.113,0.36c-0.041,0.143-0.079,0.307-0.113,0.49
		c-0.034,0.184-0.052,0.383-0.052,0.594c0,0.107,0.018,0.192,0.054,0.256c0.036,0.063,0.083,0.095,0.142,0.095
		c0.082,0,0.162-0.013,0.24-0.039c0.078-0.024,0.154-0.06,0.228-0.101c0.074-0.041,0.146-0.088,0.217-0.141
		c0.07-0.052,0.137-0.104,0.201-0.158c0.077-0.063,0.161-0.146,0.251-0.244c0.09-0.102,0.179-0.207,0.266-0.317
		c0.087-0.111,0.167-0.22,0.242-0.327c0.075-0.107,0.133-0.201,0.177-0.279c0.023-0.041,0.05-0.097,0.081-0.164
		c0.03-0.067,0.06-0.139,0.088-0.213s0.054-0.146,0.077-0.213c0.023-0.068,0.04-0.122,0.05-0.163
		c0.008-0.034,0.015-0.067,0.021-0.094s0.013-0.054,0.019-0.082s0.015-0.058,0.025-0.089c0.01-0.03,0.023-0.064,0.038-0.104
		c0.01-0.025,0.03-0.055,0.058-0.084c0.028-0.028,0.061-0.056,0.098-0.08c0.037-0.023,0.077-0.045,0.119-0.062
		s0.083-0.024,0.121-0.024c0.115,0,0.204,0.032,0.265,0.099c0.062,0.063,0.095,0.146,0.1,0.239c-0.01,0.052-0.028,0.136-0.052,0.254
		c-0.024,0.119-0.049,0.252-0.075,0.399c-0.025,0.146-0.047,0.3-0.065,0.456c-0.018,0.157-0.027,0.303-0.027,0.432
		c0,0.227,0.031,0.401,0.094,0.531c0.063,0.129,0.152,0.194,0.267,0.194c0.087,0,0.178-0.024,0.274-0.072
		c0.096-0.047,0.195-0.108,0.297-0.188c0.102-0.079,0.206-0.172,0.309-0.274s0.206-0.212,0.307-0.327s0.198-0.23,0.291-0.349
		c0.094-0.118,0.182-0.229,0.264-0.334c0.117-0.153,0.225-0.281,0.321-0.382c0.098-0.103,0.192-0.151,0.284-0.151
		c0.016,0,0.035,0.003,0.06,0.008s0.048,0.015,0.071,0.027c0.022,0.013,0.042,0.028,0.059,0.05S16.794,36.174,16.794,36.207z"/>
	<path fill="#3D3B39" d="M19.435,36.629c-0.029,0.059-0.066,0.104-0.111,0.141c-0.045,0.033-0.096,0.059-0.151,0.071
		c-0.057,0.015-0.112,0.022-0.169,0.022c-0.046,0-0.092-0.008-0.138-0.021c-0.047-0.013-0.094-0.02-0.143-0.02
		c-0.082,0-0.182,0.024-0.301,0.073c-0.119,0.051-0.241,0.115-0.366,0.194s-0.248,0.168-0.368,0.265
		c-0.12,0.099-0.224,0.193-0.311,0.289c-0.049,0.054-0.105,0.116-0.169,0.191c-0.063,0.076-0.125,0.155-0.182,0.237
		c-0.058,0.081-0.106,0.163-0.146,0.245c-0.039,0.082-0.06,0.156-0.06,0.223c0,0.081,0.009,0.178,0.025,0.287
		c0.017,0.109,0.024,0.227,0.024,0.35c0,0.043,0,0.083-0.002,0.12c-0.001,0.037-0.007,0.074-0.017,0.109
		c-0.005,0.03-0.021,0.063-0.048,0.102c-0.027,0.037-0.061,0.072-0.102,0.107c-0.041,0.034-0.086,0.063-0.135,0.087
		c-0.049,0.021-0.099,0.033-0.149,0.033c-0.084,0-0.156-0.03-0.215-0.092c-0.059-0.062-0.105-0.146-0.14-0.256
		c-0.035-0.111-0.06-0.24-0.075-0.389c-0.015-0.148-0.022-0.309-0.022-0.479c0-0.011,0-0.045,0.002-0.104
		c0.001-0.06,0.002-0.123,0.004-0.19c0.001-0.069,0.003-0.137,0.005-0.201c0.003-0.063,0.004-0.104,0.004-0.121
		c0-0.012,0.002-0.045,0.006-0.1c0.004-0.058,0.009-0.127,0.016-0.207s0.013-0.168,0.02-0.261c0.006-0.094,0.013-0.183,0.019-0.267
		c0.007-0.084,0.013-0.159,0.018-0.226c0.005-0.065,0.009-0.106,0.012-0.128c0.002-0.008,0.006-0.033,0.01-0.078
		c0.003-0.046,0.009-0.097,0.015-0.154c0.007-0.061,0.015-0.119,0.025-0.182c0.01-0.062,0.021-0.111,0.03-0.152
		c0.011-0.036,0.031-0.078,0.063-0.127c0.032-0.049,0.073-0.097,0.123-0.142c0.05-0.044,0.105-0.083,0.166-0.114
		c0.062-0.031,0.127-0.048,0.196-0.048c0.082,0,0.147,0.013,0.197,0.038c0.05,0.026,0.09,0.057,0.119,0.094
		c0.029,0.037,0.049,0.078,0.06,0.119c0.01,0.043,0.015,0.08,0.015,0.113c0,0.021-0.008,0.064-0.022,0.136
		c-0.016,0.07-0.036,0.148-0.062,0.232c-0.031,0.112-0.058,0.243-0.081,0.393c-0.022,0.149-0.04,0.294-0.054,0.433
		c0.141-0.158,0.292-0.319,0.453-0.481c0.161-0.162,0.328-0.31,0.502-0.44c0.174-0.131,0.352-0.238,0.533-0.321
		s0.363-0.124,0.545-0.124c0.089,0,0.17,0.014,0.241,0.043c0.072,0.029,0.133,0.068,0.183,0.115c0.05,0.047,0.088,0.1,0.115,0.156
		c0.026,0.059,0.04,0.116,0.04,0.176v0.008C19.479,36.497,19.464,36.57,19.435,36.629z"/>
	<path fill="#3D3B39" d="M26.602,36.866c0,0.049-0.011,0.102-0.027,0.159c-0.018,0.057-0.04,0.115-0.067,0.17
		c-0.026,0.058-0.056,0.109-0.088,0.16c-0.032,0.05-0.062,0.092-0.09,0.125c-0.082,0.103-0.175,0.211-0.274,0.326
		c-0.101,0.113-0.205,0.229-0.316,0.34c-0.109,0.112-0.223,0.221-0.338,0.324c-0.113,0.104-0.229,0.193-0.344,0.271
		c-0.091,0.062-0.177,0.116-0.26,0.17c-0.083,0.053-0.169,0.1-0.257,0.141c-0.089,0.041-0.183,0.073-0.28,0.097
		c-0.099,0.022-0.205,0.033-0.324,0.033c-0.19,0-0.351-0.037-0.478-0.113c-0.126-0.077-0.229-0.18-0.31-0.309
		c-0.078-0.127-0.14-0.273-0.182-0.439c-0.043-0.164-0.074-0.336-0.099-0.514c-0.033-0.244-0.07-0.438-0.11-0.578
		c-0.041-0.143-0.091-0.213-0.15-0.213c-0.051,0-0.101,0.012-0.148,0.035c-0.048,0.024-0.109,0.077-0.182,0.156
		c-0.073,0.079-0.166,0.193-0.276,0.348c-0.11,0.152-0.256,0.354-0.437,0.607c-0.062,0.087-0.135,0.184-0.224,0.291
		s-0.182,0.21-0.278,0.309c-0.098,0.1-0.193,0.187-0.289,0.262c-0.097,0.074-0.186,0.127-0.268,0.156
		c-0.321-0.072-0.482-0.381-0.482-0.926c0-0.138,0.015-0.341,0.046-0.609c0.015-0.119,0.032-0.246,0.052-0.379
		c0.019-0.134,0.043-0.269,0.072-0.401c0.029-0.136,0.064-0.267,0.105-0.396c0.041-0.129,0.089-0.248,0.143-0.356
		c0.03-0.063,0.064-0.11,0.104-0.146c0.038-0.035,0.077-0.063,0.116-0.081c0.04-0.018,0.082-0.028,0.125-0.034
		c0.044-0.005,0.087-0.008,0.131-0.008c0.038,0,0.075,0.01,0.109,0.028c0.037,0.019,0.068,0.047,0.098,0.083
		c0.027,0.035,0.05,0.079,0.066,0.13c0.017,0.052,0.024,0.11,0.024,0.177c0,0.059-0.005,0.115-0.016,0.17
		c-0.011,0.053-0.024,0.107-0.042,0.165s-0.036,0.119-0.057,0.183c-0.02,0.064-0.039,0.138-0.06,0.22
		c-0.013,0.054-0.03,0.123-0.056,0.207s-0.049,0.171-0.072,0.262s-0.047,0.181-0.066,0.269c-0.021,0.086-0.033,0.16-0.039,0.219
		c0.047-0.055,0.1-0.121,0.159-0.202c0.06-0.08,0.123-0.167,0.189-0.261c0.065-0.094,0.134-0.188,0.202-0.285
		c0.07-0.098,0.14-0.189,0.207-0.275c0.091-0.113,0.179-0.22,0.266-0.318c0.087-0.1,0.18-0.188,0.273-0.26
		c0.097-0.072,0.201-0.131,0.313-0.172c0.113-0.043,0.239-0.063,0.38-0.063c0.166,0,0.303,0.032,0.406,0.101
		s0.188,0.162,0.251,0.282c0.063,0.121,0.108,0.263,0.142,0.428c0.029,0.165,0.055,0.345,0.071,0.539
		c0.011,0.101,0.022,0.202,0.041,0.308c0.017,0.104,0.041,0.199,0.074,0.285c0.032,0.086,0.077,0.155,0.131,0.211
		c0.054,0.055,0.12,0.082,0.198,0.082c0.117,0,0.246-0.031,0.386-0.095s0.286-0.147,0.438-0.258c0.153-0.11,0.312-0.237,0.473-0.384
		c0.16-0.146,0.322-0.303,0.482-0.469c0.051-0.054,0.102-0.106,0.147-0.158c0.048-0.053,0.093-0.102,0.137-0.143
		c0.044-0.043,0.085-0.076,0.126-0.102c0.041-0.026,0.082-0.038,0.123-0.038c0.016,0,0.033,0.001,0.055,0.005
		c0.021,0.004,0.039,0.012,0.058,0.021c0.019,0.013,0.032,0.028,0.044,0.05C26.594,36.803,26.602,36.831,26.602,36.866z"/>
	<path fill="#3D3B39" d="M31.229,36.266c0,0.049-0.017,0.1-0.047,0.153c-0.033,0.056-0.074,0.11-0.123,0.165
		c-0.051,0.055-0.106,0.109-0.172,0.164c-0.063,0.054-0.128,0.102-0.191,0.146s-0.125,0.084-0.182,0.117
		c-0.059,0.033-0.105,0.059-0.145,0.076c-0.069,0.028-0.158,0.055-0.268,0.078c-0.108,0.023-0.223,0.045-0.34,0.063
		c-0.119,0.017-0.234,0.029-0.347,0.041c-0.11,0.01-0.205,0.016-0.282,0.016c-0.018,0-0.042-0.003-0.074-0.008
		c-0.031-0.004-0.065-0.008-0.104-0.017c-0.038-0.008-0.074-0.018-0.111-0.028c-0.037-0.012-0.068-0.025-0.094-0.045
		c0.027,0.061,0.044,0.123,0.048,0.193s0.007,0.141,0.007,0.21c0,0.048-0.007,0.104-0.017,0.173
		c-0.011,0.066-0.022,0.135-0.04,0.203s-0.037,0.135-0.061,0.199c-0.022,0.063-0.047,0.117-0.072,0.161
		c-0.063,0.108-0.133,0.211-0.205,0.303c-0.072,0.093-0.154,0.179-0.243,0.257c-0.09,0.079-0.19,0.153-0.304,0.223
		c-0.112,0.07-0.242,0.138-0.391,0.203c-0.158,0.069-0.318,0.117-0.477,0.145c-0.158,0.025-0.322,0.041-0.491,0.041
		c-0.125,0-0.235-0.034-0.333-0.1c-0.098-0.064-0.18-0.151-0.246-0.263c-0.066-0.108-0.115-0.235-0.15-0.379
		c-0.034-0.144-0.053-0.293-0.053-0.448c0-0.039,0.004-0.088,0.01-0.146c0.008-0.058,0.017-0.115,0.027-0.174
		c0.012-0.06,0.023-0.116,0.038-0.173s0.027-0.104,0.04-0.143c0.036-0.107,0.088-0.23,0.155-0.367
		c0.067-0.139,0.147-0.281,0.239-0.425c0.093-0.146,0.193-0.286,0.308-0.426c0.112-0.14,0.231-0.265,0.358-0.372
		c0.125-0.109,0.258-0.195,0.395-0.264c0.137-0.066,0.273-0.1,0.413-0.1c0.06,0,0.104,0.006,0.142,0.018
		c0.035,0.012,0.065,0.027,0.088,0.046c0.023,0.021,0.045,0.041,0.063,0.065c0.019,0.023,0.04,0.049,0.063,0.07
		c0.018-0.005,0.035-0.009,0.056-0.011c0.019-0.003,0.039-0.004,0.06-0.004c0.079,0,0.157,0.03,0.233,0.092
		c0.077,0.062,0.155,0.129,0.233,0.203c0.035,0.032,0.072,0.065,0.109,0.102c0.037,0.034,0.07,0.064,0.102,0.093
		c0.031,0.025,0.059,0.049,0.082,0.064c0.024,0.016,0.043,0.025,0.053,0.025c0.066,0,0.139-0.002,0.217-0.004
		c0.078,0,0.156-0.004,0.236-0.008c0.082-0.004,0.16-0.009,0.234-0.017c0.075-0.008,0.145-0.017,0.205-0.026
		c0.008-0.003,0.041-0.012,0.1-0.024c0.06-0.015,0.131-0.032,0.213-0.054c0.084-0.022,0.175-0.045,0.271-0.07
		c0.098-0.026,0.188-0.051,0.271-0.072c0.082-0.021,0.154-0.039,0.215-0.054s0.095-0.021,0.105-0.021
		c0.051,0,0.092,0.007,0.123,0.021C31.214,36.17,31.229,36.206,31.229,36.266z M26.805,38.822c0.207,0,0.391-0.055,0.549-0.165
		c0.16-0.109,0.295-0.257,0.405-0.439c0.109-0.183,0.194-0.391,0.255-0.625c0.061-0.233,0.092-0.475,0.094-0.723
		c-0.018-0.038-0.043-0.077-0.078-0.118c-0.034-0.041-0.073-0.078-0.116-0.109c-0.044-0.033-0.089-0.059-0.136-0.078
		c-0.045-0.021-0.088-0.03-0.125-0.03c-0.063,0-0.129,0.024-0.2,0.071c-0.071,0.05-0.138,0.1-0.199,0.15s-0.122,0.117-0.183,0.2
		s-0.115,0.177-0.166,0.278c-0.053,0.103-0.1,0.209-0.143,0.324c-0.044,0.112-0.08,0.226-0.111,0.336
		c-0.03,0.111-0.055,0.221-0.07,0.326c-0.018,0.104-0.025,0.197-0.025,0.278c0,0.041,0.008,0.081,0.021,0.119
		s0.03,0.073,0.052,0.104c0.021,0.03,0.048,0.055,0.079,0.072C26.734,38.813,26.768,38.822,26.805,38.822z"/>
	<path fill="#3D3B39" d="M37.354,36.533c0,0.143-0.049,0.3-0.15,0.473c-0.102,0.174-0.232,0.348-0.395,0.521
		c-0.164,0.174-0.345,0.343-0.545,0.506c-0.201,0.164-0.402,0.309-0.604,0.435c-0.2,0.127-0.391,0.229-0.569,0.306
		c-0.179,0.078-0.327,0.115-0.444,0.115c-0.164,0-0.303-0.035-0.416-0.105s-0.209-0.163-0.283-0.279
		c-0.075-0.115-0.135-0.249-0.18-0.398c-0.043-0.149-0.074-0.304-0.096-0.461c-0.038,0.092-0.089,0.19-0.152,0.299
		c-0.063,0.106-0.133,0.214-0.207,0.317c-0.074,0.104-0.148,0.203-0.226,0.298c-0.075,0.092-0.146,0.174-0.209,0.239
		c-0.089,0.095-0.188,0.187-0.295,0.272c-0.106,0.088-0.224,0.166-0.347,0.232c-0.121,0.066-0.252,0.119-0.389,0.159
		c-0.137,0.039-0.279,0.06-0.428,0.06c-0.125,0-0.236-0.025-0.332-0.078s-0.176-0.12-0.238-0.205
		c-0.064-0.084-0.113-0.182-0.145-0.29c-0.032-0.108-0.048-0.218-0.048-0.327c0-0.098,0.008-0.198,0.024-0.303
		c0.016-0.104,0.034-0.207,0.055-0.313c0.021-0.104,0.041-0.211,0.061-0.313c0.02-0.104,0.032-0.203,0.04-0.301
		c0.005-0.074,0.011-0.152,0.017-0.238c0.004-0.084,0.01-0.17,0.015-0.256c0.006-0.084,0.013-0.17,0.021-0.256
		s0.021-0.166,0.032-0.24c0.011-0.053,0.024-0.104,0.045-0.152c0.019-0.048,0.046-0.092,0.082-0.129s0.081-0.066,0.136-0.088
		c0.057-0.021,0.123-0.032,0.203-0.032c0.16,0,0.272,0.047,0.338,0.144s0.099,0.241,0.099,0.437c0,0.06-0.005,0.127-0.011,0.203
		c-0.008,0.077-0.02,0.155-0.031,0.239c-0.012,0.082-0.027,0.166-0.045,0.252c-0.016,0.084-0.034,0.164-0.055,0.24
		c-0.043,0.172-0.084,0.338-0.123,0.5S31.5,38.323,31.5,38.45c0,0.082,0.016,0.149,0.045,0.204c0.029,0.054,0.064,0.08,0.109,0.08
		c0.109,0,0.224-0.034,0.343-0.104c0.119-0.066,0.233-0.15,0.347-0.253c0.113-0.101,0.221-0.211,0.32-0.33
		c0.102-0.118,0.188-0.228,0.259-0.327c0.067-0.092,0.134-0.205,0.202-0.341c0.066-0.136,0.134-0.278,0.199-0.429
		c0.064-0.15,0.128-0.299,0.189-0.444c0.062-0.147,0.115-0.276,0.164-0.389c0.066-0.151,0.145-0.269,0.23-0.351
		c0.087-0.08,0.171-0.121,0.253-0.121c0.097,0,0.169,0.019,0.215,0.058c0.046,0.038,0.069,0.108,0.069,0.211
		c0,0.041-0.006,0.104-0.016,0.188c-0.012,0.084-0.021,0.172-0.035,0.266s-0.023,0.184-0.035,0.27
		c-0.01,0.086-0.016,0.15-0.016,0.193c0,0.041,0.002,0.091,0.002,0.148c0.002,0.061,0.004,0.119,0.006,0.183
		c0.004,0.063,0.008,0.124,0.015,0.183c0.007,0.061,0.014,0.109,0.021,0.15c0.01,0.043,0.026,0.1,0.051,0.168
		c0.021,0.068,0.051,0.136,0.086,0.201c0.033,0.064,0.072,0.121,0.112,0.169c0.041,0.047,0.085,0.071,0.13,0.071
		c0.135,0,0.274-0.035,0.424-0.104c0.15-0.069,0.304-0.16,0.459-0.271c0.156-0.11,0.313-0.236,0.471-0.377
		c0.156-0.142,0.311-0.281,0.458-0.422c0.062-0.06,0.122-0.119,0.183-0.18s0.118-0.113,0.174-0.161
		c0.058-0.047,0.108-0.086,0.157-0.116c0.05-0.029,0.091-0.045,0.127-0.045c0.041,0,0.073,0.012,0.099,0.037
		C37.341,36.492,37.354,36.514,37.354,36.533z"/>
	<path fill="#3D3B39" d="M40,36.119c0,0.063-0.02,0.115-0.057,0.158c-0.036,0.041-0.082,0.076-0.135,0.103
		c-0.055,0.026-0.111,0.043-0.174,0.056c-0.062,0.012-0.117,0.021-0.169,0.024c-0.19,0.013-0.384,0.029-0.575,0.052
		c-0.19,0.021-0.365,0.043-0.52,0.062c-0.154,0.02-0.282,0.036-0.383,0.05c-0.1,0.016-0.152,0.021-0.16,0.021
		c-0.018,0.068-0.04,0.155-0.066,0.262c-0.027,0.104-0.056,0.217-0.085,0.339c-0.028,0.121-0.058,0.245-0.086,0.372
		c-0.028,0.126-0.055,0.248-0.079,0.361c-0.023,0.115-0.043,0.22-0.058,0.313c-0.015,0.093-0.021,0.167-0.021,0.222
		c0,0.043,0.004,0.098,0.012,0.161c0.011,0.065,0.025,0.13,0.05,0.191c0.022,0.061,0.054,0.112,0.092,0.157s0.087,0.067,0.146,0.067
		c0.041,0,0.093-0.009,0.151-0.026c0.062-0.019,0.128-0.045,0.199-0.084c0.073-0.039,0.149-0.088,0.231-0.148
		s0.164-0.133,0.246-0.221c0.025-0.026,0.056-0.057,0.088-0.088c0.033-0.029,0.068-0.059,0.107-0.082
		c0.038-0.024,0.079-0.045,0.124-0.063s0.093-0.023,0.142-0.023c0.076,0,0.129,0.017,0.156,0.05
		c0.027,0.032,0.043,0.075,0.043,0.127c0,0.103-0.029,0.194-0.09,0.28c-0.059,0.084-0.133,0.179-0.222,0.283
		c-0.041,0.049-0.104,0.113-0.194,0.196c-0.088,0.083-0.191,0.165-0.314,0.245c-0.121,0.081-0.256,0.15-0.405,0.211
		s-0.308,0.091-0.474,0.091c-0.162,0-0.297-0.021-0.408-0.063s-0.203-0.098-0.276-0.164c-0.073-0.068-0.13-0.146-0.171-0.234
		s-0.07-0.178-0.09-0.27s-0.03-0.184-0.034-0.272s-0.006-0.17-0.006-0.241c0-0.076,0.008-0.166,0.024-0.268s0.037-0.207,0.06-0.319
		s0.05-0.229,0.079-0.348c0.029-0.119,0.056-0.232,0.078-0.343c0.022-0.107,0.043-0.207,0.06-0.299
		c0.017-0.094,0.024-0.17,0.024-0.234c0-0.016-0.002-0.029-0.006-0.042s-0.014-0.024-0.028-0.033s-0.039-0.017-0.072-0.021
		c-0.032-0.004-0.08-0.004-0.139-0.004c-0.066,0-0.138-0.004-0.214-0.008c-0.074-0.003-0.145-0.017-0.209-0.039
		c-0.063-0.022-0.115-0.061-0.158-0.109c-0.042-0.051-0.063-0.12-0.063-0.213c0-0.059,0.008-0.107,0.027-0.147
		c0.02-0.039,0.045-0.071,0.077-0.097c0.03-0.023,0.067-0.041,0.11-0.051c0.043-0.011,0.088-0.017,0.137-0.02l0.809-0.034
		c0.016-0.028,0.04-0.083,0.073-0.165s0.071-0.18,0.112-0.29c0.043-0.11,0.086-0.229,0.129-0.354
		c0.044-0.125,0.084-0.243,0.119-0.353c0.052-0.16,0.115-0.272,0.195-0.343c0.079-0.069,0.184-0.104,0.314-0.104
		c0.084,0,0.148,0.012,0.195,0.033c0.045,0.021,0.078,0.049,0.1,0.082s0.031,0.07,0.036,0.112c0.004,0.042,0.006,0.083,0.006,0.122
		c0,0.01-0.007,0.039-0.021,0.088c-0.015,0.049-0.033,0.107-0.056,0.178s-0.049,0.148-0.077,0.232
		c-0.027,0.084-0.057,0.169-0.086,0.255c-0.029,0.085-0.058,0.167-0.085,0.245c-0.026,0.078-0.049,0.146-0.065,0.202
		c0.029-0.003,0.08-0.009,0.15-0.017s0.151-0.017,0.243-0.024c0.092-0.009,0.188-0.019,0.29-0.027s0.195-0.019,0.283-0.026
		s0.164-0.016,0.23-0.021c0.064-0.005,0.106-0.008,0.127-0.008c0.139,0,0.25,0.007,0.336,0.021s0.151,0.036,0.197,0.063
		c0.046,0.028,0.077,0.063,0.092,0.104C39.992,36.014,40,36.063,40,36.119z"/>
</g>
</svg>
